<?xml version="1.0" standalone="no"?>
<!DOCTYPE svg PUBLIC "-//W3C//DTD SVG 20010904//EN"
 "http://www.w3.org/TR/2001/REC-SVG-20010904/DTD/svg10.dtd">
<svg version="1.0" xmlns="http://www.w3.org/2000/svg"
 width="448.000000pt" height="800.000000pt" viewBox="0 0 448.000000 800.000000"
 preserveAspectRatio="xMidYMid meet">

<g transform="translate(0.000000,800.000000) scale(0.100000,-0.100000)"
fill="#000000" stroke="none">
<path d="M163 7974 c-59 -29 -102 -73 -138 -144 l-25 -49 0 -3781 0 -3781 21
-42 c39 -75 78 -115 144 -147 l63 -30 2010 0 2010 0 53 25 c66 29 119 82 153
151 l26 52 0 753 0 754 -258 59 c-141 32 -336 84 -432 116 -417 137 -560 172
-920 226 l-35 5 3 105 c4 97 2 108 -23 160 -17 35 -36 59 -52 65 -19 7 -23 14
-18 27 18 41 17 70 -4 91 -27 27 -51 27 -80 0 -15 -15 -21 -28 -17 -43 3 -11
6 -29 6 -38 0 -10 13 -24 29 -32 28 -15 28 -16 19 -63 -26 -128 -27 -131 -105
-201 -41 -37 -93 -76 -116 -87 l-41 -20 -12 -85 c-7 -47 -15 -94 -19 -105 -11
-29 -46 -65 -63 -65 -7 0 -12 -6 -9 -12 4 -14 21 -15 50 -3 16 7 17 4 12 -21
-8 -36 -79 -104 -159 -151 l-61 -36 -65 23 c-405 139 -796 407 -1090 745 -375
431 -614 961 -701 1550 -58 395 -47 746 37 1125 95 433 285 865 522 1190 157
215 385 454 582 611 415 331 912 551 1470 653 438 80 940 73 1405 -18 72 -14
133 -26 138 -26 4 0 7 65 7 144 0 123 -3 151 -20 192 -33 75 -75 121 -145 154
l-63 30 -2018 0 -2019 -1 -52 -25z"/>
</g>
</svg>
