<svg width="19" height="17" viewBox="0 0 19 17" fill="none" xmlns="http://www.w3.org/2000/svg">
<path d="M2.5913 8.88651L8.84798 15.5536C9.11572 15.8389 9.24959 15.9815 9.41395 16.0102C9.47089 16.0202 9.52911 16.0202 9.58605 16.0102C9.75041 15.9815 9.88428 15.8389 10.152 15.5536L16.4087 8.88651C17.9223 7.27366 18.1109 4.82534 16.8622 2.9997L16.3097 2.19189C14.6753 -0.197658 11.044 0.169663 9.92129 2.83812C9.76432 3.21119 9.23568 3.21119 9.07871 2.83812C7.95596 0.169663 4.32474 -0.197659 2.69034 2.19189L2.13782 2.9997C0.889117 4.82534 1.07772 7.27366 2.5913 8.88651Z" stroke="black"/>
</svg>
