<svg width="30" height="30" viewBox="0 0 30 30" fill="none" xmlns="http://www.w3.org/2000/svg">
<rect x="5" y="5" width="7.5" height="8.75" rx="1" stroke="#33363F" stroke-linejoin="round"/>
<rect x="5" y="18.75" width="7.5" height="6.25" rx="1" stroke="#33363F" stroke-linejoin="round"/>
<rect x="17.5" y="5" width="7.5" height="6.25" rx="1" stroke="#33363F" stroke-linejoin="round"/>
<path d="M17.5 18.25C17.5 17.3072 17.5 16.8358 17.7929 16.5429C18.0858 16.25 18.5572 16.25 19.5 16.25H23C23.9428 16.25 24.4142 16.25 24.7071 16.5429C25 16.8358 25 17.3072 25 18.25V23C25 23.9428 25 24.4142 24.7071 24.7071C24.4142 25 23.9428 25 23 25H19.5C18.5572 25 18.0858 25 17.7929 24.7071C17.5 24.4142 17.5 23.9428 17.5 23V18.25Z" stroke="#33363F" stroke-linejoin="round"/>
</svg>
