<svg width="16" height="19" viewBox="0 0 16 19" fill="none" xmlns="http://www.w3.org/2000/svg">
<path d="M1 9.3759C1 7.91946 1 7.19124 1.27446 6.55113C1.54892 5.91102 2.06437 5.4371 3.09525 4.48926L4.09525 3.56982C5.95857 1.85661 6.89023 1 8 1C9.10977 1 10.0414 1.85661 11.9047 3.56982L12.9047 4.48926C13.9356 5.4371 14.4511 5.91102 14.7255 6.55113C15 7.19124 15 7.91946 15 9.3759V13.9245C15 15.9472 15 16.9585 14.4142 17.5869C13.8284 18.2152 12.8856 18.2152 11 18.2152H5C3.11438 18.2152 2.17157 18.2152 1.58579 17.5869C1 16.9585 1 15.9472 1 13.9245V9.3759Z" stroke="white" stroke-width="1.5"/>
<path d="M11 18.1629V12.7268C11 12.1745 10.5523 11.7268 10 11.7268H6C5.44772 11.7268 5 12.1745 5 12.7268V18.1629" stroke="white" stroke-width="1.5" stroke-linecap="round" stroke-linejoin="round"/>
</svg>
