<svg width="92" height="103" viewBox="0 0 92 103" fill="none" xmlns="http://www.w3.org/2000/svg">
<path d="M2 50.1675C2 41.7919 2 37.6041 3.72519 33.923C5.45037 30.2419 8.6903 27.5165 15.1702 22.0658L21.4559 16.7783C33.1681 6.9261 39.0243 2 46 2C52.9757 2 58.8318 6.9261 70.5441 16.7783L76.8298 22.0658C83.3097 27.5165 86.5496 30.2419 88.2748 33.923C90 37.6041 90 41.7919 90 50.1675V76.3252C90 87.957 90 93.7729 86.3179 97.3865C82.6358 101 76.7096 101 64.8571 101H27.1429C15.2904 101 9.36417 101 5.68209 97.3865C2 93.7729 2 87.957 2 76.3252V50.1675Z" stroke="black" stroke-width="4"/>
</svg>
