<svg width="18" height="18" viewBox="0 0 18 18" fill="none" xmlns="http://www.w3.org/2000/svg">
<path d="M8.61445 6.38474C9.3898 7.58242 10.4172 8.60263 11.6281 9.37106L6.85664 14.1435C6.43158 14.5686 6.21832 14.7811 5.95722 14.9209C5.76148 15.0256 5.54695 15.0853 5.20332 15.1582L4.81269 15.2373L2.98554 15.6025C2.65304 15.669 2.48642 15.7029 2.39179 15.6084C2.2972 15.5138 2.33017 15.3471 2.39668 15.0146L2.76289 13.1875C2.88075 12.5981 2.93957 12.303 3.07929 12.042C3.21903 11.781 3.43177 11.5684 3.85664 11.1435L8.61445 6.38474ZM11.4045 3.5986C12.1673 2.90525 13.3321 2.90532 14.0949 3.5986L14.2502 3.74997C14.3296 3.82939 14.3696 3.86908 14.4016 3.90427C15.0949 4.66708 15.0949 5.83286 14.4016 6.59567L14.2502 6.74997L13.0861 7.91306C11.824 7.20957 10.7817 6.17593 10.0686 4.93063L11.2502 3.74997C11.3296 3.67055 11.3693 3.63061 11.4045 3.5986Z" fill="#222222"/>
</svg>
