<svg width="31" height="32" viewBox="0 0 31 32" fill="none" xmlns="http://www.w3.org/2000/svg">
<path d="M4.35741 21.5037L4.78303 21.766H4.78303L4.35741 21.5037ZM11.2496 10.3237L10.824 10.0613V10.0613L11.2496 10.3237ZM13.2926 10.3237L13.7182 10.0613V10.0613L13.2926 10.3237ZM17.7553 17.5628L17.3297 17.8252C17.4172 17.9672 17.5697 18.0561 17.7364 18.0625C17.903 18.0688 18.0618 17.9916 18.1598 17.8567L17.7553 17.5628ZM20.3419 14.0029L20.7464 14.2968V14.2968L20.3419 14.0029ZM22.2835 14.0029L21.879 14.2968V14.2968L22.2835 14.0029ZM27.6783 21.428L28.0828 21.1341L27.6783 21.428ZM5.3789 23.8334H15.9178V22.8334H5.3789V23.8334ZM3.93179 21.2413C3.23355 22.3739 4.04835 23.8334 5.3789 23.8334V22.8334C4.83103 22.8334 4.49552 22.2324 4.78303 21.766L3.93179 21.2413ZM10.824 10.0613L3.93179 21.2413L4.78303 21.766L11.6752 10.5861L10.824 10.0613ZM13.7182 10.0613C13.0541 8.98413 11.488 8.98412 10.824 10.0613L11.6752 10.5861C11.9487 10.1425 12.5935 10.1425 12.867 10.5861L13.7182 10.0613ZM18.181 17.3004L13.7182 10.0613L12.867 10.5861L17.3297 17.8252L18.181 17.3004ZM19.9373 13.709L17.3508 17.2689L18.1598 17.8567L20.7464 14.2968L19.9373 13.709ZM22.688 13.709C22.0091 12.7747 20.6162 12.7747 19.9373 13.709L20.7464 14.2968C21.0259 13.9121 21.5994 13.9121 21.879 14.2968L22.688 13.709ZM28.0828 21.1341L22.688 13.709L21.879 14.2968L27.2738 21.7219L28.0828 21.1341ZM26.7075 23.8334C28.0965 23.8334 28.8993 22.2579 28.0828 21.1341L27.2738 21.7219C27.61 22.1846 27.2794 22.8334 26.7075 22.8334V23.8334ZM19.1633 23.8334H26.7075V22.8334H19.1633V23.8334ZM15.9178 23.8334H19.1633V22.8334H15.9178V23.8334Z" fill="#222222"/>
</svg>
