<svg width="10" height="10" viewBox="0 0 10 10" fill="none" xmlns="http://www.w3.org/2000/svg">
<path d="M5.81348 1.81874C5.97533 1.71084 6.05626 1.65688 6.13519 1.62203C6.4561 1.48031 6.82781 1.51711 7.1147 1.71902C7.18526 1.76868 7.25404 1.83745 7.39159 1.975L8.02492 2.60833C8.16247 2.74588 8.23124 2.81466 8.2809 2.88521C8.48281 3.1721 8.51961 3.54382 8.37789 3.86473C8.34303 3.94366 8.28908 4.02459 8.18118 4.18644L7.68402 4.93217C7.28735 5.52718 7.01109 6.19414 6.87085 6.89536L6.79127 7.29326C6.73234 7.5879 6.39092 7.72582 6.14387 7.55479V7.55479C4.69864 6.55424 3.44568 5.30128 2.44513 3.85605V3.85605C2.27409 3.60899 2.41202 3.26758 2.70666 3.20865L3.10456 3.12907C3.80578 2.98883 4.47274 2.71257 5.06774 2.31589L5.81348 1.81874Z" stroke="#33363F" stroke-width="1.3"/>
<path d="M2.08325 7.91675L3.95825 6.04175" stroke="#33363F" stroke-width="1.3" stroke-linecap="round"/>
</svg>
