<svg width="10" height="10" viewBox="0 0 11 10" fill="none" xmlns="http://www.w3.org/2000/svg">
<path fill-rule="evenodd" clip-rule="evenodd" d="M4.2073 1.25031C3.69004 1.25212 3.39637 1.26449 3.13744 1.34925C2.73263 1.48177 2.38071 1.74006 2.13292 2.08651C1.94732 2.346 1.84214 2.68068 1.63176 3.35006C1.60721 3.42817 1.58629 3.49474 1.56884 3.55313C1.58035 3.55107 1.59219 3.55 1.60428 3.55H3.73299L4.2073 1.25031ZM1.50024 3.92085C1.50007 4.07964 1.53771 4.23642 1.61034 4.37811C1.66978 4.49407 1.76243 4.59702 1.94774 4.80292L1.94774 4.80292L1.94774 4.80292L4.01353 7.09824C4.27021 7.38344 4.47944 7.61592 4.66372 7.79566L3.73836 3.95H1.60428C1.56617 3.95 1.53056 3.93934 1.50024 3.92085ZM5.83308 8.17804C5.72353 8.22945 5.6151 8.25515 5.50011 8.25515C5.38513 8.25515 5.2767 8.22945 5.16715 8.17804L4.14978 3.95H6.85045L5.83308 8.17804ZM6.3365 7.79566C6.52079 7.61592 6.73001 7.38344 6.9867 7.09824L6.9867 7.09824L9.05248 4.80292C9.23779 4.59702 9.33045 4.49407 9.38989 4.37811C9.46251 4.23642 9.50016 4.07964 9.49998 3.92085C9.46967 3.93934 9.43405 3.95 9.39595 3.95H7.26186L6.3365 7.79566ZM9.43138 3.55313C9.41394 3.49474 9.39302 3.42818 9.36847 3.35007L9.36846 3.35006L9.36846 3.35005C9.15809 2.68068 9.0529 2.346 8.86731 2.08651C8.61952 1.74006 8.26759 1.48177 7.86279 1.34925C7.60386 1.26449 7.31019 1.25212 6.79293 1.25031L7.26724 3.55H9.39595C9.40804 3.55 9.41988 3.55107 9.43138 3.55313ZM6.38445 1.25H4.61578L4.14141 3.55H6.85882L6.38445 1.25Z" fill="#222222"/>
</svg>
